<?xml version="1.0" encoding="UTF-8"?>
<svg id="b" data-name="Capa 2" xmlns="http://www.w3.org/2000/svg" viewBox="0 0 308.34 308.34">
  <g id="c" data-name="Capa 1">
    <g>
      <path d="M308.34,308.34H0V0h308.34v308.34ZM48.86,283.92h210.65c13.49,0,24.42-10.93,24.42-24.42V48.84c0-13.49-10.93-24.42-24.42-24.42H48.84c-13.49,0-24.42,10.93-24.42,24.42v210.66c0,13.49,10.93,24.42,24.42,24.42h.02Z"/>
      <g>
        <path d="M44.96,226.36l45.86-153.59h27.65l45.86,153.59h-25.23l-10.31-36.86h-48.27l-10.31,36.86h-25.23ZM103.99,105.68l-18.21,65.17h37.74l-18.21-65.17h-1.32Z"/>
        <path d="M215.67,228.99c-10.53,0-19.82-2.38-27.87-7.13-8.05-4.75-14.34-11.37-18.87-19.86-4.54-8.48-6.8-18.36-6.8-29.62s2.23-21.43,6.69-30.06c4.46-8.63,10.75-15.36,18.87-20.19,8.12-4.83,17.52-7.24,28.2-7.24s19.6,2.38,27.21,7.13c7.6,4.75,13.49,11.08,17.66,18.98,4.17,7.9,6.25,16.6,6.25,26.11v4.72c0,1.68-.08,3.55-.22,5.59h-81.84c.73,10.09,4.02,17.74,9.87,22.93,5.85,5.19,12.73,7.79,20.62,7.79,6.87,0,12.32-1.43,16.35-4.28,4.02-2.85,6.98-6.76,8.89-11.74h23.48c-2.63,10.39-8.12,19.13-16.46,26.22-8.34,7.1-19.02,10.64-32.04,10.64ZM215.67,135.08c-7.17,0-13.53,2.16-19.09,6.47-5.56,4.32-9.14,10.35-10.75,18.1h57.93c-.59-7.31-3.44-13.24-8.56-17.77-5.12-4.53-11.63-6.8-19.53-6.8Z"/>
      </g>
    </g>
  </g>
</svg>