<?xml version="1.0" encoding="UTF-8"?>
<svg id="b" data-name="Capa 2" xmlns="http://www.w3.org/2000/svg" viewBox="0 0 308.34 308.34">
  <g id="c" data-name="Capa 1">
    <g>
      <path d="M308.34,308.34H0V0h308.34v308.34ZM48.86,283.92h210.65c13.49,0,24.42-10.93,24.42-24.42V48.84c0-13.49-10.93-24.42-24.42-24.42H48.84c-13.49,0-24.42,10.93-24.42,24.42v210.66c0,13.49,10.93,24.42,24.42,24.42h.02Z"/>
      <g>
        <path d="M44.96,226.36l45.86-153.59h27.65l45.86,153.59h-25.23l-10.31-36.86h-48.27l-10.31,36.86h-25.23ZM103.99,105.68l-18.21,65.17h37.74l-18.21-65.17h-1.32Z"/>
        <path d="M168.49,226.36v-20.19h34.23v-61.22c0-4.83-2.34-7.24-7.02-7.24h-24.14v-20.19h28.3c9.07,0,15.69,2.08,19.86,6.25s6.25,10.79,6.25,19.86v62.53h34.23v20.19h-91.72ZM212.16,100.85c-5.12,0-9.4-1.65-12.84-4.94-3.44-3.29-5.16-7.35-5.16-12.18s1.72-8.85,5.16-12.07c3.43-3.22,7.71-4.83,12.84-4.83s9.62,1.61,13.06,4.83c3.43,3.22,5.16,7.24,5.16,12.07s-1.72,8.89-5.16,12.18c-3.44,3.29-7.79,4.94-13.06,4.94Z"/>
      </g>
    </g>
  </g>
</svg>