<?xml version="1.0" encoding="UTF-8"?>
<svg id="b" data-name="Capa 2" xmlns="http://www.w3.org/2000/svg" viewBox="0 0 522.97 522.97">
  <g id="c" data-name="Capa 1">
    <g id="d" data-name="PPpAtw">
      <g>
        <path d="M522.93,73.71C518.5,34.08,488.89,4.47,449.26.04l-.33-.04H74.43l-.67.04c-19.16,2.16-36.27,10.18-49.49,23.2C11.21,36.11,2.84,52.96.06,71.97l-.06.43v378.13l.06.42c5.49,38.22,33.73,66.47,71.96,71.96l.42.06h378.12l.43-.06c18.87-2.72,35.67-11.03,48.56-24.03,13.15-13.26,21.23-30.43,23.38-49.67l.04-.33V74.38s-.04-.67-.04-.67ZM480.91,79.93v363.09c0,20.48-17.09,37.79-37.33,37.79l-363.61.06h0c-9.89,0-19.33-4-26.6-11.26s-11.27-16.71-11.27-26.61V79.93c0-20.53,17.34-37.87,37.87-37.87h363.07c20.53,0,37.87,17.34,37.87,37.87Z"/>
        <path d="M226.28,261.43c19.03,17.49,25.44,43.58,15.76,67.54-8.81,21.79-30.42,37.27-55.48,37.28l-89.74.02v-209.61s90.75.11,90.75.11c24.68.03,45.89,15.98,54.46,37.21,9.57,23.72,3.6,49.7-15.75,67.45ZM187.24,246.33c17.24-.05,29.46-14.55,29.21-30.26s-13.05-29.34-29.8-29.37l-59.89-.12v59.94s60.48-.19,60.48-.19ZM187.24,336.16c17.24-.05,29.46-14.56,29.21-30.26-.26-15.93-13.05-29.34-29.8-29.37l-59.89-.12v59.94s60.48-.19,60.48-.19Z"/>
        <path d="M309.17,306.41c6.22,17.4,21.29,27.78,37.22,29.52,17.81,1.95,34.25-6.42,43.83-22.04l25.78,14.85c-18.66,32.43-58.65,46.05-93.12,31.82-34.47-14.23-53.66-51.94-43.77-88.65,9.49-35.22,43.66-59.11,80.77-54.84,36.22,4.17,66.01,34.6,66.19,72.35l.08,16.93-116.98.05ZM393.49,276.39c-6.96-19.12-24.28-29.93-42.68-29.79-18.43.14-35.31,11.82-41.69,29.86l84.37-.07Z"/>
        <polygon points="411.2 186.61 291.45 186.62 291.45 156.67 411.2 156.67 411.2 186.61"/>
      </g>
    </g>
  </g>
</svg>