<?xml version="1.0" encoding="UTF-8"?>
<svg id="b" data-name="Capa 2" xmlns="http://www.w3.org/2000/svg" viewBox="0 0 277.4 310.44">
  <defs>
    <style>
      .d {
        fill: #f2d22e;
      }
    </style>
  </defs>
  <g id="c" data-name="Capa 1">
    <g>
      <path class="d" d="M261.24,42.52h16.15v-23.43h-16.15V0h-32.39c-18.95,0-35.41,10.66-43.81,26.27-4.01,7.42-11.89,11.92-20.34,11.92h-24.59C69.27,38.19,7.25,90.67.62,161.21c-7.61,80.92,56.13,149.23,135.51,149.23,75.06,0,136.12-61.06,136.12-136.11h-23.43c0,63.23-52.33,114.47-115.99,112.64-58.75-1.67-107.7-50.65-109.37-109.4-1.79-63.61,49.44-115.93,112.65-115.93h28.44c8.43,0,16.31,4.48,20.32,11.89,8.43,15.65,24.98,26.31,43.99,26.31h32.39v-19.11h16.15v-23.43h-16.15v-14.79.02ZM237.81,76.41h-8.96c-14.61,0-26.5-11.89-26.5-26.5s11.89-26.49,26.5-26.49h8.96v52.99Z"/>
      <path class="d" d="M178.96,159.42l-32.79,5.96,19.74-62.95-51.4,11.54-21.23,73.76,25.33-5.59-5.59,64.08,65.94-86.79Z"/>
    </g>
  </g>
</svg>