<?xml version="1.0" encoding="UTF-8"?>
<svg id="b" data-name="Capa 2" xmlns="http://www.w3.org/2000/svg" viewBox="0 0 250.58 214.56">
  <defs>
    <style>
      .d {
        fill: #f21d44;
      }

      .e {
        fill: #f7f7f7;
      }
    </style>
  </defs>
  <g id="c" data-name="Capa 1">
    <g>
      <polygon class="d" points="242.87 43.51 107.94 43.51 107.94 12.67 11.57 12.67 11.57 205.43 107.94 205.43 107.94 203.5 242.87 203.5 242.87 43.51"/>
      <path class="e" d="M250.57,214.56H0V0h107.8l18.72,38.21h124.06v176.35ZM38.68,195.21h173.2c10.69,0,19.34-8.66,19.34-19.34v-98.97c0-10.69-8.66-19.34-19.34-19.34h-97.43l-18.72-38.21h-57.04c-10.69,0-19.34,8.66-19.34,19.34v137.18c0,10.69,8.66,19.34,19.34,19.34h0Z"/>
    </g>
  </g>
</svg>