<?xml version="1.0" encoding="UTF-8"?>
<svg id="b" data-name="Capa 2" xmlns="http://www.w3.org/2000/svg" viewBox="0 0 308.34 308.34">
  <g id="c" data-name="Capa 1">
    <g>
      <path d="M308.34,308.34H0V0h308.34v308.34ZM48.86,283.92h210.65c13.49,0,24.42-10.93,24.42-24.42V48.84c0-13.49-10.93-24.42-24.42-24.42H48.84c-13.49,0-24.42,10.93-24.42,24.42v210.66c0,13.49,10.93,24.42,24.42,24.42h.02Z"/>
      <g>
        <path d="M52.66,226.36v-20.62h33.35v-112.34h-32.91v-20.63h89.08v20.63h-32.91v112.34h33.35v20.62H52.66Z"/>
        <path d="M201.43,228.99c-9.07,0-17.19-2.16-24.36-6.47-7.17-4.31-12.84-10.71-17-19.2-4.17-8.48-6.25-18.94-6.25-31.38s2.12-22.89,6.36-31.38c4.24-8.48,9.98-14.88,17.22-19.2,7.24-4.31,15.32-6.47,24.25-6.47,8.34,0,15.21,1.57,20.62,4.72,5.41,3.15,9.44,7.13,12.07,11.96v-63.19h23.26v157.98h-19.97l-1.97-16.02h-1.32c-2.93,5.71-7.06,10.24-12.4,13.6-5.34,3.36-12.18,5.05-20.52,5.05ZM206.25,206.83c8.34,0,15.25-2.92,20.74-8.78,5.49-5.85,8.23-14.55,8.23-26.11s-2.74-20.44-8.23-26.22c-5.49-5.78-12.4-8.67-20.74-8.67s-15.25,2.93-20.74,8.78c-5.49,5.85-8.23,14.63-8.23,26.33s2.74,20.22,8.23,26c5.49,5.78,12.4,8.67,20.74,8.67Z"/>
      </g>
    </g>
  </g>
</svg>