<?xml version="1.0" encoding="UTF-8"?>
<svg id="b" data-name="Capa 2" xmlns="http://www.w3.org/2000/svg" viewBox="0 0 522.97 522.97">
  <defs>
    <style>
      .d {
        fill: #f21d44;
      }
    </style>
  </defs>
  <g id="c" data-name="Capa 1">
    <g>
      <path class="d" d="M522.93,73.71C518.5,34.08,488.89,4.47,449.26.04l-.33-.04H74.43l-.67.04c-19.16,2.16-36.27,10.18-49.49,23.2C11.21,36.11,2.84,52.96.06,71.97l-.06.43v378.13l.06.42c5.49,38.22,33.73,66.47,71.96,71.96l.42.06h378.12l.43-.06c18.87-2.72,35.67-11.03,48.56-24.03,13.15-13.26,21.23-30.43,23.38-49.67l.04-.33V74.38s-.04-.67-.04-.67ZM480.91,79.93v363.09c0,20.48-17.09,37.79-37.33,37.79l-363.61.06h0c-9.89,0-19.33-4-26.6-11.26s-11.27-16.71-11.27-26.61V79.93c0-20.53,17.34-37.87,37.87-37.87h363.07c20.53,0,37.87,17.34,37.87,37.87Z"/>
      <path class="d" d="M256.36,125.81c77.44-5.57,143.8,53.19,149.25,129.23,5.5,76.85-52.56,143.76-129.31,149.27-76.48,5.5-143.22-52.08-149.19-128.53-5.96-76.37,51.54-144.38,129.25-149.98ZM257.35,155.76c-61.19,5.05-105.66,59.18-100.28,119.04,5.39,59.88,58.31,104.51,118.23,99.57,60.19-4.96,105.32-58.03,100.35-118.33-4.91-59.53-57.37-105.32-118.3-100.28Z"/>
      <path class="d" d="M407.05,75.96c23.46-1.36,41.99,16.54,43.41,38.47,1.47,22.74-15.96,42.07-38.14,43.62-22.68,1.58-42.06-15.37-43.92-37.5-1.91-22.75,14.87-43.21,38.64-44.59ZM407.98,105.97c-6.93.9-10.73,7.24-9.48,13.33,1.16,5.64,6.48,9.61,12.67,8.7,5.73-.84,10.12-6.33,9.29-12.46-.77-5.66-5.82-10.43-12.48-9.56Z"/>
    </g>
  </g>
</svg>