<?xml version="1.0" encoding="UTF-8"?>
<svg id="b" data-name="Capa 2" xmlns="http://www.w3.org/2000/svg" viewBox="0 0 522.97 522.97">
  <defs>
    <style>
      .d {
        fill: #007aff;
      }
    </style>
  </defs>
  <g id="c" data-name="Capa 1">
    <g>
      <path class="d" d="M335.5,253.43c-19.73-3.03-38.7,3.14-46.68,22.97-3.77,9.38-4.88,18.93-5.42,29.4v116.67s-67.87,0-67.87,0v-225.56s67.82,0,67.82,0l.18,30.12c20.7-34.63,65.05-39.9,100.69-29.3,19.99,5.95,34.04,20.71,40.93,40.14,5.62,15.88,6.93,31.72,7.92,48.98l.07,135.63h-68.89s-.02-119.66-.02-119.66c-.69-20.55-4.52-45.67-28.73-49.38Z"/>
      <polygon class="d" points="171.63 422.42 101.76 422.5 101.76 196.9 171.63 196.9 171.63 422.42"/>
      <g>
        <path class="d" d="M522.93,73.71C518.5,34.08,488.89,4.47,449.26.04l-.33-.04H74.43l-.67.04c-19.16,2.16-36.27,10.18-49.49,23.2C11.21,36.11,2.84,52.96.06,71.97l-.06.43v378.13l.06.42c5.49,38.22,33.73,66.47,71.96,71.96l.42.06h378.12l.43-.06c18.87-2.72,35.67-11.03,48.56-24.03,13.15-13.26,21.23-30.43,23.38-49.67l.04-.33V74.38s-.04-.67-.04-.67ZM480.91,79.93v363.09c0,20.48-17.09,37.79-37.33,37.79l-363.61.06h0c-9.89,0-19.33-4-26.6-11.26s-11.27-16.71-11.27-26.61V79.93c0-20.53,17.34-37.87,37.87-37.87h363.07c20.53,0,37.87,17.34,37.87,37.87Z"/>
        <path class="d" d="M131.66,84.65c23.09-3.46,43.16,12.59,46.45,34.36,3.38,22.31-12.16,43.18-34.4,46.48s-42.67-11.7-46.34-33.62c-3.69-22.05,10.92-43.72,34.29-47.22Z"/>
      </g>
    </g>
  </g>
</svg>