<?xml version="1.0" encoding="UTF-8"?>
<svg id="b" data-name="Capa 2" xmlns="http://www.w3.org/2000/svg" viewBox="0 0 273.59 303.39">
  <defs>
    <style>
      .d {
        fill: #0da64f;
      }
    </style>
  </defs>
  <g id="c" data-name="Capa 1">
    <g>
      <path class="d" d="M257.66,0H0v69.78h257.66V0ZM222.78,46.36H34.9c-6.34,0-11.46-5.14-11.46-11.46s5.14-11.46,11.46-11.46h187.87c6.34,0,11.46,5.14,11.46,11.46s-5.14,11.46-11.46,11.46h.02Z"/>
      <path class="d" d="M40.27,96.28l-23.32,2.2,19.21,204.92h69.25v-23.42h-26.6c-12.09,0-22.19-9.21-23.32-21.23l-15.22-162.46h0Z"/>
      <path class="d" d="M212.59,147.45l4.8-51.16,23.32,2.18-4.8,51.16-23.32-2.18Z"/>
      <path class="d" d="M231.55,180.3c-6.24-10.57-17.3-16.89-29.6-16.89s-23.38,6.32-29.6,16.88l-12.88,21.81,20.17,11.92,12.9-21.83c2.84-4.83,7.52-5.36,9.4-5.36s6.57.53,9.41,5.37l42.07,71.26,20.17-11.92-42.07-71.23.03-.02Z"/>
      <path class="d" d="M159.88,279.97c-5.74,0-8.56-3.86-9.51-5.53-.95-1.67-2.84-6.06.09-10.99l6.87-11.62-20.17-11.92-6.87,11.62c-6.35,10.76-6.47,23.67-.26,34.52,6.19,10.86,17.35,17.33,29.85,17.33h84.15v-23.42h-84.15v.02Z"/>
    </g>
  </g>
</svg>