<?xml version="1.0" encoding="UTF-8"?>
<svg id="b" data-name="Capa 2" xmlns="http://www.w3.org/2000/svg" viewBox="0 0 252.71 308.4">
  <defs>
    <style>
      .d {
        fill: #0da64f;
      }
    </style>
  </defs>
  <g id="c" data-name="Capa 1">
    <g>
      <path class="d" d="M185.13,41.51l-3.62-14.48c-3.98-15.93-18.1-27.03-34.52-27.03h-41.28c-16.41,0-30.65,11.1-34.64,27.03l-3.5,14.48H0v24.14h252.71v-24.14h-67.58ZM92.44,41.51l2.17-8.69c1.21-5.07,5.79-8.69,11.1-8.69h41.28c5.31,0,9.78,3.62,11.1,8.69l2.17,8.69h-67.83Z"/>
      <path class="d" d="M232.56,84.18l-18.83,224.23H38.86L20.16,84.18h24.14l14.96,178.01c1.09,12.43,11.46,22.09,24.02,22.09h86.05c12.55,0,23.05-9.65,24.14-22.09l14.84-178.01h24.26Z"/>
    </g>
  </g>
</svg>