<?xml version="1.0" encoding="UTF-8"?>
<svg id="b" data-name="Capa 2" xmlns="http://www.w3.org/2000/svg" viewBox="0 0 308.34 308.34">
  <g id="c" data-name="Capa 1">
    <g>
      <path d="M308.34,308.34H0V0h308.34v308.34ZM48.86,283.92h210.65c13.49,0,24.42-10.93,24.42-24.42V48.84c0-13.49-10.93-24.42-24.42-24.42H48.84c-13.49,0-24.42,10.93-24.42,24.42v210.66c0,13.49,10.93,24.42,24.42,24.42h.02Z"/>
      <g>
        <path d="M47.4,226.36V72.77h52c11.7,0,21.36,2.01,28.96,6.03,7.6,4.02,13.24,9.54,16.89,16.57,3.66,7.02,5.49,15.07,5.49,24.14s-1.83,17.12-5.49,24.14c-3.66,7.02-9.29,12.54-16.89,16.57-7.61,4.03-17.26,6.03-28.96,6.03h-28.74v60.12h-23.26ZM70.66,145.4h27.65c9.95,0,17.22-2.34,21.83-7.02,4.61-4.68,6.91-10.97,6.91-18.87s-2.3-14-6.91-18.76c-4.61-4.75-11.89-7.13-21.83-7.13h-27.65v51.78Z"/>
        <path d="M158.42,226.36v-20.19h26.55v-61.22c0-4.83-2.34-7.24-7.02-7.24h-17.33v-20.19h26.11c6,0,10.9,1.72,14.7,5.16,3.8,3.44,5.71,8.23,5.71,14.37v2.63h1.1c1.61-8.19,5.08-14.37,10.42-18.54,5.34-4.17,13.13-6.25,23.37-6.25h16.9v24.57h-23.7c-8.63,0-15.29,3-19.97,9-4.68,6-7.02,13.17-7.02,21.5v36.2h33.79v20.19h-83.6Z"/>
      </g>
    </g>
  </g>
</svg>