<?xml version="1.0" encoding="UTF-8"?>
<svg id="b" data-name="Capa 2" xmlns="http://www.w3.org/2000/svg" viewBox="0 0 308.34 308.34">
  <g id="c" data-name="Capa 1">
    <g>
      <path d="M308.34,308.34H0V0h308.34v308.34ZM48.86,283.92h210.65c13.49,0,24.42-10.93,24.42-24.42V48.84c0-13.49-10.93-24.42-24.42-24.42H48.84c-13.49,0-24.42,10.93-24.42,24.42v210.66c0,13.49,10.93,24.42,24.42,24.42h.02Z"/>
      <g>
        <path d="M50.4,226.36V72.77h52c11.7,0,21.36,2.01,28.96,6.03,7.6,4.02,13.24,9.54,16.89,16.57,3.66,7.02,5.49,15.07,5.49,24.14s-1.83,17.12-5.49,24.14c-3.66,7.02-9.29,12.54-16.89,16.57-7.61,4.03-17.26,6.03-28.96,6.03h-28.74v60.12h-23.26ZM73.66,145.4h27.65c9.95,0,17.22-2.34,21.83-7.02,4.61-4.68,6.91-10.97,6.91-18.87s-2.3-14-6.91-18.76c-4.61-4.75-11.89-7.13-21.83-7.13h-27.65v51.78Z"/>
        <path d="M211.23,228.99c-14.34,0-25.75-3.36-34.23-10.09-8.49-6.73-13.31-15.65-14.48-26.77h23.92c.88,5.12,3.47,9.29,7.79,12.51,4.31,3.22,10.06,4.83,17.22,4.83s12.18-1.43,15.91-4.28c3.73-2.85,5.59-6.18,5.59-9.98,0-5.56-2.23-9.36-6.69-11.41-4.46-2.05-11.01-3.58-19.64-4.61-7.46-.88-14.23-2.6-20.3-5.16-6.07-2.56-10.86-6.07-14.37-10.53-3.51-4.46-5.27-10.06-5.27-16.79,0-9.51,3.73-17.19,11.19-23.04,7.46-5.85,17.84-8.78,31.16-8.78s23.62,3,30.94,9c7.31,6,11.55,14.19,12.73,24.58h-22.38c-.59-4.39-2.85-7.86-6.8-10.42-3.95-2.56-8.85-3.84-14.7-3.84s-10.75,1.13-14.26,3.4c-3.51,2.27-5.27,5.23-5.27,8.89,0,7.9,8.48,12.73,25.45,14.48,8.04.88,15.21,2.38,21.5,4.5,6.29,2.12,11.26,5.41,14.92,9.87,3.66,4.46,5.49,10.72,5.49,18.76.14,6.58-1.72,12.51-5.59,17.77-3.88,5.27-9.22,9.43-16.02,12.51-6.8,3.07-14.74,4.61-23.81,4.61Z"/>
      </g>
    </g>
  </g>
</svg>