<?xml version="1.0" encoding="UTF-8"?>
<svg id="b" data-name="Capa 2" xmlns="http://www.w3.org/2000/svg" xmlns:xlink="http://www.w3.org/1999/xlink" viewBox="0 0 970.11 393.26">
  <defs>
    <style>
      .e, .f, .g {
        fill: none;
      }

      .h {
        fill: #e22d2d;
      }

      .i {
        fill: #5578f5;
      }

      .f {
        stroke: #000;
      }

      .f, .g, .j {
        stroke-miterlimit: 10;
      }

      .k {
        fill: #eeb82c;
      }

      .g, .j {
        stroke: #f0b5d3;
      }

      .l {
        clip-path: url(#d);
      }

      .m {
        fill: #f1f0e7;
        opacity: .6;
      }

      .n {
        fill: #e52713;
      }
    </style>
    <clipPath id="d">
      <polygon class="e" points="28.33 342.93 35.47 364 199.29 339.77 633.62 189.81 606.19 110.35 171.43 260.44 28.33 342.93"/>
    </clipPath>
  </defs>
  <g id="c" data-name="Capa 1">
    <g>
      <g>
        <g>
          <polygon class="i" points="30.1 342.26 37.25 363.33 201.07 339.1 635.4 189.14 607.96 109.68 173.2 259.77 30.1 342.26"/>
          <g>
            <path class="g" d="M199.12,289.35l333.12-115.77c18.76-6.52,28.66-26.97,22.14-45.72"/>
            <path class="g" d="M203.33,301.48l333.12-115.77v-.04c18.74-6.52,39.19,3.38,45.71,22.14"/>
            <circle class="g" cx="201.32" cy="295.43" r="6.46"/>
          </g>
        </g>
        <g>
          <path d="M6.37,362.13h0c-1.16-3.34.61-6.99,3.94-8.15l20.64-9.29,5.51,15.87-21.96,5.51c-3.34,1.16-6.99-.61-8.15-3.94Z"/>
          <circle class="h" cx="8.41" cy="361.62" r="5.92"/>
          <path class="f" d="M6.37,362.13h0c-1.16-3.34.61-6.99,3.94-8.15l20.64-9.29,5.51,15.87-21.96,5.51c-3.34,1.16-6.99-.61-8.15-3.94Z"/>
        </g>
        <g>
          <path d="M674.22,257.87l-79.27-228.1-7.33,2.55h0s-.01,0-.02,0c-3.77,1.3,10.84,53.45,32.63,116.47,21.79,63.02,42.5,113.06,46.27,111.76h0s7.72-2.68,7.72-2.68Z"/>
          <ellipse class="j" cx="634.73" cy="143.83" rx="7.21" ry="120.29" transform="translate(-12.04 216.33) rotate(-19.16)"/>
          <path class="n" d="M789.09-86.52h21.25c17.34,0,31.41,14.08,31.41,31.41v318.12h-84.07V-55.11c0-17.34,14.08-31.41,31.41-31.41Z" transform="translate(622.15 -696.49) rotate(70.95)"/>
          <circle class="k" cx="678.61" cy="128.19" r="12.71"/>
          <circle class="k" cx="913.09" cy="46.7" r="12.71"/>
        </g>
      </g>
      <g class="l">
        <g>
          <rect class="m" x="372.05" y="-112.88" width="12.92" height="623.37" transform="translate(529.26 -201.27) rotate(82.94)"/>
          <rect class="m" x="364.94" y="-95.61" width="6.61" height="623.37" transform="translate(537.4 -175.95) rotate(82.94)"/>
        </g>
      </g>
      <path class="h" d="M11.84,387.42c-.05,3.27-2.73,5.88-6,5.83-3.27-.05-5.88-2.73-5.83-6s6.07-10.83,6.07-10.83c0,0,5.81,7.73,5.76,11Z"/>
    </g>
  </g>
</svg>