<?xml version="1.0" encoding="UTF-8"?>
<svg id="b" data-name="Capa 2" xmlns="http://www.w3.org/2000/svg" viewBox="0 0 327.67 306.47">
  <defs>
    <style>
      .d {
        fill: #007aff;
      }
    </style>
  </defs>
  <g id="c" data-name="Capa 1">
    <g>
      <path class="d" d="M307.27,306.47H0l7.23-56.2c6.43-34.39,32.94-58.39,64.55-59.14h163.47c31.88.75,58.36,24.75,64.7,58.32l7.34,57v.02ZM51.61,280.31h204.03c12.62,0,22.33-12.09,20.59-25.63l-.09-.8c-3.92-20.71-20.91-36.1-41.16-36.57H72.04c-20,.47-36.98,15.86-41.01,37.37-1.72,13.54,7.97,25.61,20.59,25.61v.02Z"/>
      <path class="d" d="M153.64,167.52c-30.89,0-56-27.21-56-60.68v-46.17C97.64,27.21,122.76,0,153.64,0s56,27.21,56,60.68v46.17c0,33.46-25.12,60.68-56,60.68ZM153.64,26.15c-17.56,0-31.85,15.49-31.85,34.51v46.17c0,19.02,14.28,34.51,31.85,34.51s31.85-15.49,31.85-34.51v-46.17c0-19.02-14.28-34.51-31.85-34.51Z"/>
      <path class="d" d="M327.67,71.37h-23.2c-6.31,0-11.43-5.53-11.43-12.38v-25.14h-22.84v25.14c0,6.84-5.1,12.38-11.43,12.38h-23.2v24.75h23.2c6.31,0,11.43,5.53,11.43,12.38v25.14h22.84v-25.14c0-6.84,5.1-12.38,11.43-12.38h23.2v-24.75Z"/>
    </g>
  </g>
</svg>