<?xml version="1.0" encoding="UTF-8"?>
<svg id="b" data-name="Capa 2" xmlns="http://www.w3.org/2000/svg" viewBox="0 0 258.38 305.19">
  <defs>
    <style>
      .d {
        fill: #f38a1d;
      }
    </style>
  </defs>
  <g id="c" data-name="Capa 1">
    <g>
      <path class="d" d="M0,97.87v109.42h80l108.61,97.89V0l-108.61,97.87H0ZM145.02,71.24c7.63-6.89,19.83-1.45,19.83,8.82v145.04c0,10.29-12.19,15.71-19.83,8.82l-55.89-50.38h-53.5c-6.56,0-11.88-5.31-11.88-11.88v-38.17c0-6.56,5.31-11.88,11.88-11.88h53.5l55.89-50.38v.02Z"/>
      <path class="d" d="M235.46,77.58l-19.63,13.39c.42.62,41.51,62.32,0,123.24l19.63,13.39c50.52-74.14,2.09-146.94,0-150.01h0Z"/>
    </g>
  </g>
</svg>