<?xml version="1.0" encoding="UTF-8"?>
<svg id="b" data-name="Capa 2" xmlns="http://www.w3.org/2000/svg" viewBox="0 0 506.9 586.49">
  <defs>
    <style>
      .i {
        fill: #e5222d;
      }

      .j {
        fill: #09a34f;
      }
    </style>
  </defs>
  <g id="c" data-name="Capa 1">
    <g>
      <circle class="i" cx="253.45" cy="333.04" r="253.45"/>
      <g>
        <g id="d" data-name="&amp;lt;Repetición radial&amp;gt;">
          <path class="j" d="M296.35,353.88l-23.49-38.38c47.12-28.84,60.69-92.77,30.24-142.51l38.38-23.49c20.94,34.21,27.87,74.22,19.52,112.65-8.43,38.8-31.39,71.38-64.65,91.74Z"/>
        </g>
        <g id="e" data-name="&amp;lt;Repetición radial&amp;gt;">
          <path class="j" d="M213.1,244.93c-34.06,0-66.36-11.78-92.22-33.9l29.24-34.2c20.22,17.29,46.32,25.3,73.48,22.57,27.54-2.77,52.9-16.21,71.4-37.85l34.2,29.24c-26.07,30.49-61.97,49.44-101.1,53.38-5.03.51-10.04.76-15,.76Z"/>
        </g>
        <g id="f" data-name="&amp;lt;Repetición radial&amp;gt;">
          <path class="j" d="M286.13,191.88c-37.05-15.37-66.17-43.66-82.01-79.66-15.99-36.34-16.56-76.2-1.62-112.22l41.57,17.24c-10.19,24.57-9.75,51.86,1.24,76.86,11.15,25.34,31.76,45.3,58.06,56.21l-17.24,41.57Z"/>
        </g>
        <g id="g" data-name="&amp;lt;Repetición radial&amp;gt;">
          <path class="j" d="M316.64,154.8l-44.86-3.55c3.17-39.99,21.07-76.43,50.42-102.61,29.63-26.43,67.35-39.3,106.23-36.22l-3.55,44.86c-55.07-4.37-103.63,39.38-108.23,97.52Z"/>
        </g>
        <g id="h" data-name="&amp;lt;Repetición radial&amp;gt;">
          <path class="j" d="M442.67,241.61c-12.87-53.73-69.48-86.38-126.19-72.8l-10.48-43.76c39.01-9.34,79.2-3.57,113.17,16.24,34.29,20.01,58.19,51.91,67.27,89.84l-43.76,10.48Z"/>
        </g>
      </g>
    </g>
  </g>
</svg>